<?xml version="1.0" standalone="no"?><!DOCTYPE svg PUBLIC "-//W3C//DTD SVG 1.1//EN" "http://www.w3.org/Graphics/SVG/1.1/DTD/svg11.dtd"><svg t="1698392617222" class="icon" viewBox="0 0 1024 1024" version="1.1" xmlns="http://www.w3.org/2000/svg" p-id="1837" xmlns:xlink="http://www.w3.org/1999/xlink" width="200" height="200"><path d="M915.370667 1005.354667a36.266667 36.266667 0 0 0 51.498666 0 36.394667 36.394667 0 0 0 0-51.498667l-142.506666-142.506667a449.493333 449.493333 0 0 0 132.437333-319.36c0-248.917333-202.496-451.413333-451.413333-451.413333C256.512 40.618667 54.016 243.114667 54.016 492.032s202.496 451.413333 451.413333 451.413333c38.101333 0 77.226667-5.290667 116.181334-15.658666a36.394667 36.394667 0 1 0-18.730667-70.357334c-32.853333 8.746667-65.664 13.184-97.493333 13.184-208.725333 0-378.538667-169.813333-378.538667-378.581333 0-208.725333 169.813333-378.581333 378.538667-378.581333 208.768 0 378.581333 169.813333 378.581333 378.581333a377.301333 377.301333 0 0 1-139.221333 293.205333 36.394667 36.394667 0 0 0-5.12 51.2" fill="#3377FF" p-id="1838"></path></svg>