<?xml version="1.0" encoding="UTF-8"?>
<svg xmlns="http://www.w3.org/2000/svg" xmlns:xlink="http://www.w3.org/1999/xlink" width="50px" height="50px" viewBox="0 0 50 50" version="1.1">
<g id="surface1">
<path style=" stroke:none;fill-rule:nonzero;fill:rgb(98.039216%,74.509804%,17.254902%);fill-opacity:1;" d="M 15.277344 24.90625 C 15.277344 30.355469 19.691406 34.769531 25.140625 34.769531 C 30.585938 34.769531 35 30.355469 35 24.90625 C 35 19.460938 30.585938 15.046875 25.140625 15.046875 C 19.691406 15.046875 15.277344 19.460938 15.277344 24.90625 Z M 15.277344 24.90625 "/>
<path style=" stroke:none;fill-rule:nonzero;fill:rgb(98.039216%,74.509804%,17.254902%);fill-opacity:1;" d="M 23.75 4.582031 L 23.75 11.851562 C 23.75 13.65625 26.527344 13.65625 26.527344 11.851562 L 26.527344 4.582031 C 26.527344 2.777344 23.75 2.777344 23.75 4.582031 Z M 23.75 37.964844 L 23.75 45.230469 C 23.75 47.035156 26.527344 47.035156 26.527344 45.230469 L 26.527344 37.964844 C 26.527344 36.15625 23.75 36.15625 23.75 37.964844 Z M 45.464844 23.519531 L 38.195312 23.519531 C 36.390625 23.519531 36.390625 26.296875 38.195312 26.296875 L 45.464844 26.296875 C 47.269531 26.296875 47.269531 23.519531 45.464844 23.519531 Z M 12.082031 23.519531 L 4.816406 23.519531 C 3.007812 23.519531 3.007812 26.296875 4.816406 26.296875 L 12.082031 26.296875 C 13.890625 26.296875 13.890625 23.519531 12.082031 23.519531 Z M 12.082031 23.519531 "/>
<path style=" stroke:none;fill-rule:nonzero;fill:rgb(98.039216%,74.509804%,17.254902%);fill-opacity:1;" d="M 38.519531 9.535156 L 33.378906 14.675781 C 32.128906 15.925781 34.074219 17.917969 35.371094 16.667969 L 40.507812 11.527344 C 41.757812 10.230469 39.769531 8.285156 38.519531 9.535156 Z M 14.90625 33.148438 L 9.769531 38.285156 C 8.519531 39.535156 10.464844 41.527344 11.757812 40.277344 L 16.898438 35.140625 C 18.148438 33.84375 16.203125 31.851562 14.90625 33.148438 Z M 14.90625 33.148438 "/>
<path style=" stroke:none;fill-rule:nonzero;fill:rgb(98.039216%,74.509804%,17.254902%);fill-opacity:1;" d="M 40.507812 38.285156 L 35.371094 33.148438 C 34.121094 31.898438 32.128906 33.84375 33.378906 35.140625 L 38.519531 40.277344 C 39.769531 41.527344 41.757812 39.535156 40.507812 38.285156 Z M 16.898438 14.675781 L 11.757812 9.535156 C 10.507812 8.285156 8.519531 10.230469 9.769531 11.527344 L 14.90625 16.667969 C 16.203125 17.917969 18.148438 15.925781 16.898438 14.675781 Z M 16.898438 14.675781 "/>
<path style=" stroke:none;fill-rule:nonzero;fill:rgb(100%,83.529412%,47.058824%);fill-opacity:1;" d="M 17.40625 24.90625 C 17.40625 29.175781 20.867188 32.640625 25.140625 32.640625 C 29.410156 32.640625 32.871094 29.175781 32.871094 24.90625 C 32.871094 20.636719 29.410156 17.175781 25.140625 17.175781 C 20.867188 17.175781 17.40625 20.636719 17.40625 24.90625 Z M 17.40625 24.90625 "/>
<path style=" stroke:none;fill-rule:nonzero;fill:rgb(98.039216%,74.509804%,17.254902%);fill-opacity:1;" d="M 19.90625 24.90625 C 19.90625 27.796875 22.25 30.140625 25.140625 30.140625 C 28.027344 30.140625 30.371094 27.796875 30.371094 24.90625 C 30.371094 22.019531 28.027344 19.675781 25.140625 19.675781 C 22.25 19.675781 19.90625 22.019531 19.90625 24.90625 Z M 19.90625 24.90625 "/>
</g>
</svg>
